<svg width="21" height="20" viewBox="0 0 21 20" fill="none" xmlns="http://www.w3.org/2000/svg">
<path d="M17.6084 6.67498L12.15 2.30831C11.0834 1.45831 9.41672 1.44997 8.35838 2.29997L2.90005 6.67498C2.11672 7.29998 1.64172 8.54997 1.80838 9.53331L2.85838 15.8166C3.10005 17.225 4.40838 18.3333 5.83338 18.3333H14.6667C16.075 18.3333 17.4084 17.2 17.65 15.8083L18.7 9.52497C18.85 8.54997 18.375 7.29998 17.6084 6.67498ZM10.875 15C10.875 15.3416 10.5917 15.625 10.25 15.625C9.90838 15.625 9.62505 15.3416 9.62505 15V12.5C9.62505 12.1583 9.90838 11.875 10.25 11.875C10.5917 11.875 10.875 12.1583 10.875 12.5V15Z" fill="#5865F2"/>
</svg>
